<svg width="124" height="303" viewBox="0 0 124 303" fill="none" xmlns="http://www.w3.org/2000/svg">
<path d="M61.9141 76.5625L56.4453 69.7266C51.7578 63.6068 47.6562 58.8542 44.1406 55.4688C40.7552 51.9531 36.0677 47.9167 30.0781 43.3594L23.4375 38.2812L30.0781 33.0078C36.0677 28.4505 40.8203 24.4141 44.3359 20.8984C47.8516 17.3828 51.9531 12.5651 56.6406 6.44531L61.9141 0L66.9922 6.44531C71.6797 12.5651 75.7812 17.3828 79.2969 20.8984C82.8125 24.4141 87.5651 28.4505 93.5547 33.0078L100.195 38.2812L93.5547 43.3594C87.5651 48.0469 82.8125 52.1484 79.2969 55.6641C75.7812 59.1797 71.6797 63.9323 66.9922 69.9219L61.9141 76.5625ZM123.633 302.539H0V295.508H2.53906C5.01302 295.508 8.39844 295.247 12.6953 294.727C16.9922 294.076 20.8333 292.643 24.2188 290.43C27.7344 288.216 29.7526 284.766 30.2734 280.078V145.898C29.4922 141.602 27.3438 138.411 23.8281 136.328C20.3125 134.245 16.4714 132.943 12.3047 132.422C8.26823 131.901 5.07812 131.641 2.73438 131.641H0.390625V124.805H30.2734C40.4297 124.805 49.4141 123.698 57.2266 121.484C65.0391 119.271 71.6146 116.797 76.9531 114.062C82.2917 111.198 86.3932 108.659 89.2578 106.445L93.3594 103.125V279.883C93.6198 284.57 95.4427 288.086 98.8281 290.43C102.214 292.643 106.055 294.076 110.352 294.727C114.648 295.247 118.099 295.508 120.703 295.508H123.633V302.539Z" fill="black"/>
</svg>
